Coordinates
version=1
nRows=12
nColumns=46
inDegrees=yes

Units are S.I. units (second, meters, Newtons, ...)
If the header above contains a line with 'inDegrees', this indicates whether rotational values are in degrees (yes) or radians (no).

endheader 
time	pelvis_tilt	pelvis_list	pelvis_rotation	pelvis_tx	pelvis_ty	pelvis_tz	hip_flexion_l	hip_adduction_l	hip_rotation_l	hip_flexion_r	hip_adduction_r	hip_rotation_r	knee_angle_l	knee_angle_r	ankle_angle_l	ankle_angle_r	subtalar_angle_l	subtalar_angle_r	mtp_angle_l	mtp_angle_r	lumbar_extension	lumbar_bending	lumbar_rotation	arm_flex_l	arm_add_l	arm_rot_l	arm_flex_r	arm_add_r	arm_rot_r	elbow_flex_l	elbow_flex_r	pro_sup_l	pro_sup_r	hip_flexion_l/activation	hip_flexion_r/activation	hip_adduction_l/activation	hip_adduction_r/activation	hip_rotation_l/activation	hip_rotation_r/activation	knee_angle_l/activation	knee_angle_r/activation	ankle_angle_l/activation	ankle_angle_r/activation	subtalar_angle_l/activation	subtalar_angle_r/activation	
          0.35200000	        -11.58017511	          2.38673754	         -3.81172373	         -2.55408510	          0.95895756	          0.18406405	         58.72306449	        -17.98176733	         -7.65209951	         14.38919242	        -13.36810832	         -4.17008673	         89.83308650	        112.56562424	         -0.71951775	          1.54907768	         -0.43715579	          2.96659452	          0.09056477	          0.13952378	        -25.06540053	         -3.42386851	          8.32482362	        -99.83939805	        -15.69691222	        -10.26401610	        -85.79927992	        -26.16549174	        -30.70558330	        163.54174460	        148.93278126	        131.72893847	        133.00842416	          6.41415897	       -140.36072857	        -81.62528672	        -39.56664012	        -51.23293782	        -16.40069245	         99.03030011	        -81.21357170	          4.81133819	          2.52685001	          1.40075626	          0.94321909	
          0.37290909	        -12.05735828	          4.05121808	         -5.10837333	         -2.37761323	          0.96083415	          0.18259269	         59.93188985	        -14.88215948	         -6.88004709	         22.75044260	        -15.62252117	         -2.76218381	         89.35966272	        122.31505275	         -1.40739573	         -1.47424787	         -0.21294432	          2.07691741	          0.13611072	          0.08703433	        -26.53562322	         -5.20641975	          9.21731893	       -157.48182549	        -23.19422513	        -11.08308083	       -135.32839270	        -32.96691190	        -29.29459214	        167.80985302	        177.23200193	        133.36480182	        134.54630006	          8.91321983	       -131.69293465	        -16.21006890	        -44.56430014	          4.86224583	         58.92154798	         36.37267890	        -40.11784597	         -2.40471117	         -2.75906795	          0.33234458	         -3.17688495	
          0.39381818	        -11.10131675	          3.01323876	         -3.67420482	         -2.18618453	          0.97018225	          0.18201874	         59.89875541	        -14.92964938	         -6.30748809	         23.17215355	        -14.19209262	         -5.63027667	         91.34223955	        121.87169950	          1.25559322	         -0.68102952	         -0.14729318	          0.33796376	          0.08375456	         -0.02524578	        -26.70914152	         -3.61098988	          8.43006938	       -190.21502988	        -22.61604366	         -4.66630493	       -161.59229385	        -29.22709110	        -17.86557912	        141.49579864	        176.54762742	        134.95637337	        135.97317878	         24.05784389	       -107.04970436	        -10.25913916	        -32.38609551	          9.59173044	         49.33887639	         -3.20969578	        -11.11369145	         -0.11147498	         -2.79991644	         -0.50627358	         -2.49851678	
          0.41472727	        -11.17127380	          2.78321475	         -2.66107593	         -1.98538576	          0.97714796	          0.18280283	         59.96570554	        -15.34933812	         -6.67575610	         21.45439563	        -13.67786994	         -7.05175107	         93.86826520	        117.95939805	          2.14837447	         -0.93536050	         -0.01651037	         -1.61045698	          0.05518086	         -0.09977282	        -25.67596062	         -3.35181432	          7.55092183	       -187.25348516	        -21.71740170	         -1.89898029	       -157.18261382	        -26.44911093	        -10.68469070	        106.45269777	        163.30754742	        136.43915621	        137.17158983	         25.18275065	        -84.12586227	        -12.78884326	        -13.56464422	          7.78526012	         34.94910045	        -17.40578074	          6.72133382	          0.49682059	         -3.74836555	         -0.60377143	         -0.15444881	
          0.43563636	        -11.20477857	          2.28943264	         -2.10849025	         -1.77946099	          0.98117415	          0.18383174	         59.58658458	        -16.39533921	         -6.71848996	         17.48363741	        -12.77462670	         -6.98630365	         96.13260856	        112.34480876	          2.20323038	         -2.76831484	          0.16492009	         -1.09707778	          0.03934033	         -0.09733118	        -24.61277703	         -3.06169513	          7.79003421	       -168.89644142	        -22.46106759	         -0.84269719	       -139.85926649	        -26.18500713	         -6.78497030	         79.98676307	        147.82254235	        137.82917356	        138.20813958	         19.86208164	        -49.35431986	        -17.12162285	        -10.80295567	          2.64573462	          5.33476350	        -20.23775030	         13.88974788	          0.78570012	          1.17687513	         -0.34241037	         -1.05605317	
          0.45654545	        -11.10228351	          1.37639333	         -1.77372134	         -1.56968863	          0.98337371	          0.18466322	         58.53524995	        -18.08278797	         -6.61045552	         11.72127186	        -11.35451725	         -6.65334486	         97.37522381	        105.42383030	          1.83875365	         -3.34910831	          0.30943760	          0.52359384	          0.03461179	         -0.05091447	        -22.93598401	         -2.28270431	          8.39755719	       -154.71011616	        -22.75227024	          0.58790629	       -124.13077032	        -25.98422205	         -4.17772956	         66.00300105	        134.75541159	        139.17423648	        139.17778503	         19.82417148	        -10.45948359	         -6.97166383	          1.97843015	          1.78251765	          0.04098281	        -18.21912229	          2.71015424	          1.09660376	          0.39494990	         -0.38880114	         -0.01979352	
          0.47745455	        -10.74830612	          0.84755913	         -1.12545703	         -1.35882685	          0.98334902	          0.18487909	         56.83673159	        -19.32717408	         -6.85669223	          4.95258216	        -10.49187668	         -6.85155705	         97.38260730	         97.60454169	          1.36197562	         -1.45253121	          0.24202319	          0.51919106	          0.04141988	         -0.02397869	        -21.02670161	         -1.64140893	          8.08723903	       -144.58082137	        -22.90051316	          0.38783615	       -112.56287133	        -25.63471187	         -2.91933082	         63.04568758	        126.09060997	        140.48821645	        140.19245906	         19.43187420	         26.13405250	         -5.78809863	         13.28606652	         -6.39600698	        -17.28378029	         -9.15295973	          4.41828151	          1.37186034	          0.41397765	          0.02392123	          1.08901555	
          0.49836364	        -10.53053986	          0.53373476	         -0.48743048	         -1.14995278	          0.98041250	          0.18520981	         55.34145409	        -20.51002683	         -7.49500901	         -1.10838264	         -9.55228972	         -7.05771461	         96.52282816	         89.42127788	          1.15204973	         -0.01139614	         -0.13350219	          0.42443020	          0.06283228	          0.01465718	        -19.08619802	         -1.14637904	          7.18815458	       -135.49011097	        -23.06907416	         -1.01048165	       -103.52100949	        -25.50565712	         -3.32414261	         67.26492578	        122.40844754	        141.77121443	        141.26799028	         22.33446003	         59.24668139	         -3.11172727	         20.30431668	        -14.44646699	        -35.16798558	          8.94469258	         29.08889607	          1.54291102	          0.94588597	          0.71164830	          2.04277958	
          0.51927273	        -10.30555584	          0.02113756	          0.13109197	         -0.94626409	          0.97514912	          0.18567021	         54.54060139	        -22.00725744	         -8.44766837	         -5.43539199	         -8.36518674	         -7.81254884	         95.55767727	         82.77401884	          1.70358291	          0.19150917	         -0.46429612	          0.55712497	          0.10324653	          0.09859353	        -17.99155171	         -0.42852417	          6.11777507	       -124.89160921	        -23.13244016	         -3.45555236	        -94.29611051	        -25.52421958	         -5.22621963	         76.47981477	        122.38581791	        143.02627933	        142.38324094	         16.70609113	         92.13043182	          5.66781031	         25.68640608	         -7.26038874	        -47.41748351	         12.11738059	         83.17785929	          2.93609020	          2.81776370	         -0.00683300	          2.52984617	
          0.54018182	         -9.62442873	         -0.82615442	          0.55105282	         -0.75237051	          0.96925094	          0.18582071	         54.52255513	        -23.56002537	         -9.25421127	         -6.43224081	         -7.53800530	         -9.43266405	         94.91445100	         82.19618445	          4.21964191	          0.94674127	         -0.44676950	          1.24773781	          0.06811869	          0.21195765	        -19.18468997	          0.62993073	          5.48671810	       -109.16356775	        -22.84437447	         -6.57875174	        -80.44600830	        -25.13681808	         -7.98487618	         88.49534541	        121.68352957	        144.26474779	        143.55496465	         -4.45614256	        117.74166872	         62.44429174	         20.58192852	         34.82379146	         -1.94716867	        -18.31235069	        131.90646391	         -3.42346655	          3.42668679	         -0.94920329	          0.23974984	
          0.56109091	         -9.56537535	         -0.74573426	         -0.48476684	         -0.57446382	          0.96421897	          0.18519470	         55.99462158	        -22.60289332	         -8.56281562	          0.36764286	         -8.69970177	         -8.92029949	         92.87776610	         94.03203155	          4.06237624	          3.54029403	         -0.50308253	          2.39458331	          0.00870274	          0.19527681	        -22.54412459	          0.47157467	          6.34572735	        -81.17129498	        -21.49713599	         -7.56797432	        -55.93390446	        -24.11500067	         -9.45947812	         96.45107314	        112.27255741	        145.51191962	        144.77318712	        -21.24692149	        -14.61668286	         19.68634430	        -17.25806059	         18.20103674	         13.67054128	         58.62183550	          2.03076300	         -1.04581136	         -2.41238750	         -0.33006511	         -0.36855411	
          0.58200000	        -11.58017511	          2.38673754	         -3.81172373	         -1.34364808	          0.95895756	          0.18406405	         58.72306449	        -17.98176733	         -7.65209951	         14.38919242	        -13.36810832	         -4.17008673	         89.83308650	        112.56562424	         -0.71951775	          1.54907768	         -0.43715579	          2.96659452	          0.09056477	          0.13952378	        -25.06540053	         -3.42386851	          8.32482362	        -32.76998221	        -16.56459403	          0.14251202	        -15.88697755	        -20.81524241	         -4.22660023	         80.59421722	         76.68067086	        146.85315959	        146.03769695	          6.41415897	       -140.36072857	        -81.62528672	        -39.56664012	        -51.23293782	        -16.40069245	         99.03030011	        -81.21357170	          4.81133819	          2.52685001	          1.40075626	          0.94321909	
